<?xml version="1.0" standalone="no"?><!DOCTYPE svg PUBLIC "-//W3C//DTD SVG 1.1//EN" "http://www.w3.org/Graphics/SVG/1.1/DTD/svg11.dtd"><svg t="1563940420752" class="icon" viewBox="0 0 1024 1024" version="1.1" xmlns="http://www.w3.org/2000/svg" p-id="4467" xmlns:xlink="http://www.w3.org/1999/xlink" width="128" height="128"><defs><style type="text/css"></style></defs><path d="M466.88 192H160a32 32 0 0 0-32 32v512a32 32 0 0 0 32 32h704a32 32 0 0 0 32-32V320a32 32 0 0 0-32-32h-288a32 32 0 0 1-22.72-9.28z m122.24 32H864a96 96 0 0 1 96 96v416a96 96 0 0 1-96 96H160a96 96 0 0 1-96-96V224a96 96 0 0 1 96-96h320a32 32 0 0 1 22.72 9.28z" p-id="4468" fill="#8a8a8a"></path><path d="M96 416a32 32 0 0 1 0-64h800a32 32 0 0 1 0 64z" p-id="4469" fill="#8a8a8a"></path></svg>